<?xml version="1.0" encoding="utf-8"?>
<!-- Generator: Adobe Illustrator 24.0.1, SVG Export Plug-In . SVG Version: 6.00 Build 0)  -->
<svg version="1.1" id="图层_1" xmlns="http://www.w3.org/2000/svg" xmlns:xlink="http://www.w3.org/1999/xlink" x="0px" y="0px"
	 viewBox="0 0 452.3 35.7" style="enable-background:new 0 0 452.3 35.7;" xml:space="preserve">
<style type="text/css">
	.st0{fill:#2E333B;}
	.st1{fill:#1F1F1F;}
</style>
<title>资源 59</title>
<g>
	<path class="st0" d="M0.8,9l13.5-7.8c0.5-0.3,1-0.3,1.5,0l8.5,4.9c0.7,0.4,1,1.3,0.5,2.1c-0.1,0.1-0.1,0.2-0.2,0.3l-2.9,2.9
		c-0.5,0.5-1.2,0.6-1.8,0.2l-4.1-2.4c-0.5-0.3-1.1-0.3-1.5,0L0,17.5v-7.3C0,9.8,0.3,9.3,0.8,9z"/>
	<path class="st1" d="M24.3,29.9l-8.5,4.9c-0.5,0.3-1,0.3-1.5,0L0.8,27C0.3,26.7,0,26.2,0,25.7v-6.6l7-4v6.6c0,0.5,0.3,1,0.8,1.3
		l6.5,3.8c0.5,0.3,1,0.3,1.5,0l4.1-2.4c0.6-0.3,1.3-0.2,1.8,0.2l2.9,2.9c0.6,0.6,0.6,1.5,0,2.1C24.5,29.7,24.4,29.8,24.3,29.9z"/>
</g>
<path class="st1" d="M78.9,4.6V25c0,1.4-0.6,1.6-1.9,1.6H66.6c-0.4,0-0.8-0.1-1.1-0.4c-0.2-0.1-0.4-0.1-0.4-1.4V4.6h-5.2v20.7
	c0,1.7,0.6,3.2,1.8,4.4c1.1,1.1,2.7,1.7,4.8,1.7h11c1.9,0,3.5-0.6,4.7-1.7c1.3-1.2,1.9-2.5,1.9-4.8V4.6L78.9,4.6z"/>
<path class="st1" d="M110.6,17.4c-1-1.1-2.4-1.7-4.1-1.7H97c-0.6,0-1-0.1-1.4-0.5c-0.4-0.4-0.5-0.8-0.5-1.3v-2.7
	c0-0.5,0.1-1,0.4-1.3c0.2-0.2,0.5-0.4,1.6-0.4h14.7V4.6H95.3c-2,0-3.5,0.8-4.7,2.4c-0.5,0.7-0.7,1.8-0.7,3.5v5
	c0,1.5,0.4,2.7,1.2,3.5c0.9,1,2.2,1.4,3.8,1.4h10c0.6,0,1.1,0.1,1.4,0.4c0.4,0.3,0.6,0.7,0.6,1.1v2.7c0,1.3-0.3,1.3-0.4,1.4
	c-0.4,0.4-0.9,0.5-1.5,0.5H89.9v4.8h16.1c1.9,0,3.4-0.6,4.6-1.8c1-1.1,1.6-2.6,1.6-4.5V22C112.1,20,111.6,18.4,110.6,17.4z"/>
<polygon class="st1" points="118.3,4.6 118.3,9.4 127.1,9.4 127.1,31.4 132.3,31.4 132.3,9.4 141.1,9.4 141.1,4.6 "/>
<path class="st1" d="M54.4,15.7c0.1-1.6,0-5.2,0-5.2c0-2.4-1.1-4.1-3.2-5.2c-0.8-0.4-2.1-0.6-3.8-0.6l-9.9,0c-1.6,0-6.2,0-6.2,0
	l2.4,4.8h5.3c0,0,0.1,0,0.1,0h7.5c1.1,0,2.5,0.2,2.5,1.8v3.9c0,1.3-0.6,1.8-2,1.8h-6.9l0,0h-8.8v14.5h5.2v-9.7h8l3.6,9.8h6.2
	c0,0-3.7-9.9-3.8-10.1c-0.1-0.3,1.5-0.6,2.6-1.7C54.3,18.5,54.3,17.3,54.4,15.7z"/>
<g>
	<path d="M156.8,31.1h-4.9L160,9.3c0.5-1.5,1.2-2.7,2.2-3.6c0.9-0.9,2.3-1.3,4-1.3c1.9,0,3.4,0.5,4.4,1.6c1,1.1,1.5,2.4,1.5,4.1
		v15.5c0,0.4,0.1,0.8,0.4,1.1c0.2,0.3,0.6,0.4,1,0.4c0.7,0,1.2-0.4,1.5-1.1l6.4-16.8c0.5-1.5,1.2-2.7,2.2-3.6c0.9-0.9,2.3-1.3,4-1.3
		c1.9,0,3.4,0.5,4.4,1.6c1,1.1,1.5,2.4,1.5,4.1v21h-4.6V10.3c0-0.5-0.1-0.8-0.4-1.1c-0.2-0.3-0.6-0.4-1-0.4c-0.3,0-0.6,0.1-0.9,0.3
		c-0.2,0.2-0.4,0.5-0.6,0.8l-6.4,16.8c-0.5,1.5-1.2,2.7-2.2,3.6c-0.9,0.9-2.3,1.3-4,1.3c-1.9,0-3.4-0.5-4.4-1.6
		c-1-1.1-1.4-2.4-1.4-4.2V10.3c0-0.5-0.1-0.8-0.4-1.1c-0.3-0.3-0.6-0.4-1-0.4c-0.4,0-0.7,0.1-0.9,0.3c-0.2,0.2-0.4,0.5-0.5,0.8
		L156.8,31.1z"/>
	<path d="M202.2,31.1h-5.1l9.2-23.3c0.5-1.2,1.2-2.1,2.1-2.6c0.9-0.5,2-0.8,3.4-0.8c1.4,0,2.5,0.3,3.4,0.8c0.9,0.5,1.6,1.4,2,2.6
		l8.9,23.3h-5.1l-8-21.1c-0.2-0.6-0.7-0.9-1.3-0.9c-0.6,0-1.1,0.3-1.3,0.9L202.2,31.1z"/>
	<path d="M235.1,4.9l8.1,9.7l8.4-9.7h5.7l-11.2,12.9l11.3,13.3h-5.6l-8.7-10.4l-9,10.4h-5.7l11.8-13.7L229.5,4.9H235.1z"/>
	<path d="M265.1,4.9v20.8c0,0.4,0.1,0.8,0.4,1.1c0.2,0.3,0.6,0.4,1,0.4c0.3,0,0.6-0.1,0.9-0.3c0.2-0.2,0.4-0.5,0.6-0.8l6.4-16.8
		c0.5-1.5,1.2-2.7,2.2-3.6c0.9-0.9,2.3-1.3,4-1.3c1.9,0,3.4,0.5,4.4,1.6c1,1.1,1.5,2.4,1.5,4.1v15.5c0,0.4,0.1,0.8,0.4,1.1
		c0.2,0.3,0.6,0.4,1,0.4c0.4,0,0.7-0.1,0.9-0.3c0.2-0.2,0.4-0.5,0.6-0.8l7.8-21.2h4.9l-8.1,21.9c-0.5,1.5-1.3,2.7-2.2,3.6
		c-0.9,0.9-2.3,1.3-4,1.3c-1.9,0-3.4-0.5-4.4-1.6c-1-1.1-1.4-2.4-1.4-4.2V10.3c0-0.5-0.1-0.8-0.4-1.1c-0.3-0.3-0.6-0.4-1-0.4
		c-0.4,0-0.7,0.1-0.9,0.3c-0.2,0.2-0.4,0.5-0.6,0.8l-6.4,16.8c-0.5,1.5-1.2,2.7-2.1,3.6c-0.9,0.9-2.3,1.3-4,1.3
		c-2,0-3.4-0.5-4.4-1.6c-1-1.1-1.4-2.4-1.4-4.2v-21H265.1z"/>
	<path d="M326.7,4.9v4.6h-13.2c-1.4,0-2.4,0.3-3,0.9c-0.6,0.6-0.9,1.4-0.9,2.4c0,2.1,1.3,3.1,4,3.1h12.9V20h-13c-2.7,0-4,1.1-4,3.2
		c0,1,0.3,1.8,1,2.4c0.6,0.6,1.6,0.9,3,0.9h13.3v4.6h-13.3c-1.6,0-2.9-0.2-4-0.5c-1.1-0.4-2-0.9-2.7-1.5c-0.7-0.6-1.2-1.4-1.6-2.3
		c-0.3-0.9-0.5-1.8-0.5-2.8c0-1.5,0.3-2.8,1-3.8c0.6-1,1.6-1.8,2.8-2.3c-2.5-1-3.7-3-3.7-5.9c0-1,0.2-2,0.5-2.9
		c0.3-0.9,0.9-1.6,1.6-2.3c0.7-0.6,1.6-1.1,2.7-1.5c1.1-0.4,2.4-0.5,4-0.5H326.7z"/>
	<path d="M337,4.9V22c0,0.6,0.1,1.2,0.3,1.8c0.2,0.6,0.5,1,0.9,1.4c0.4,0.4,1,0.7,1.7,1c0.7,0.2,1.5,0.4,2.6,0.4h10.2v4.6h-10.5
		c-1.7,0-3.2-0.2-4.5-0.7c-1.2-0.5-2.2-1.1-3-1.9c-0.8-0.8-1.3-1.8-1.7-2.9c-0.4-1.1-0.5-2.3-0.5-3.6V4.9H337z"/>
	<path d="M360.5,4.9V22c0,0.6,0.1,1.2,0.3,1.8c0.2,0.6,0.5,1,0.9,1.4c0.4,0.4,1,0.7,1.7,1c0.7,0.2,1.5,0.4,2.6,0.4h10.2v4.6h-10.5
		c-1.7,0-3.2-0.2-4.5-0.7c-1.2-0.5-2.2-1.1-3-1.9c-0.8-0.8-1.3-1.8-1.7-2.9c-0.4-1.1-0.5-2.3-0.5-3.6V4.9H360.5z"/>
</g>
<g>
	<path d="M385.7,7.8h1.5l6.2,22.3h0.1l6.3-22.3h1.7l6.3,22.3h0.1L414,7.8h1.5l-6.9,23.8h-1.7l-6.3-22.2h-0.1l-6.3,22.2h-1.7
		L385.7,7.8z"/>
	<path d="M420.5,8.9c0.3,0.2,0.4,0.5,0.4,0.9c0,0.4-0.1,0.7-0.4,0.9s-0.6,0.4-0.9,0.4c-0.4,0-0.7-0.1-0.9-0.4
		c-0.3-0.3-0.4-0.6-0.4-0.9c0-0.4,0.1-0.7,0.4-0.9c0.2-0.3,0.6-0.4,0.9-0.4C419.9,8.5,420.2,8.6,420.5,8.9z M418.9,14.3h1.3v17.3
		h-1.3V14.3z"/>
	<path d="M442.2,7.8h1.8l-11.1,10.1l12.6,13.7h-1.8L432,18.7l-4.8,4.4v8.5h-1.3V7.8h1.3v13.8L442.2,7.8z"/>
	<path d="M450.4,8.9c0.3,0.2,0.4,0.5,0.4,0.9c0,0.4-0.1,0.7-0.4,0.9s-0.6,0.4-0.9,0.4c-0.4,0-0.7-0.1-0.9-0.4
		c-0.3-0.3-0.4-0.6-0.4-0.9c0-0.4,0.1-0.7,0.4-0.9c0.2-0.3,0.6-0.4,0.9-0.4C449.8,8.5,450.1,8.6,450.4,8.9z M448.8,14.3h1.3v17.3
		h-1.3V14.3z"/>
</g>
</svg>
