<svg width="411" height="36" viewBox="0 0 411 36" fill="none" xmlns="http://www.w3.org/2000/svg">
<path d="M0.8 9.0001L14.3 1.2001C14.8 0.900098 15.3 0.900098 15.8 1.2001L24.3 6.1001C25 6.5001 25.3 7.4001 24.8 8.2001C24.7 8.3001 24.7 8.4001 24.6 8.5001L21.7 11.4001C21.2 11.9001 20.5 12.0001 19.9 11.6001L15.8 9.2001C15.3 8.9001 14.7 8.9001 14.3 9.2001L0 17.5001V10.2001C0 9.8001 0.3 9.3001 0.8 9.0001Z" fill="#2E333B"/>
<path d="M24.3 29.9001L15.8 34.8001C15.3 35.1001 14.8 35.1001 14.3 34.8001L0.8 27.0001C0.3 26.7001 0 26.2001 0 25.7001V19.1001L7 15.1001V21.7001C7 22.2001 7.3 22.7001 7.8 23.0001L14.3 26.8001C14.8 27.1001 15.3 27.1001 15.8 26.8001L19.9 24.4001C20.5 24.1001 21.2 24.2001 21.7 24.6001L24.6 27.5001C25.2 28.1001 25.2 29.0001 24.6 29.6001C24.5 29.7001 24.4 29.8001 24.3 29.9001Z" fill="#1F1F1F"/>
<path d="M78.9 4.6001V25.0001C78.9 26.4001 78.3 26.6001 77 26.6001H66.6C66.2 26.6001 65.8 26.5001 65.5 26.2001C65.3 26.1001 65.1 26.1001 65.1 24.8001V4.6001H59.9V25.3001C59.9 27.0001 60.5 28.5001 61.7 29.7001C62.8 30.8001 64.4 31.4001 66.5 31.4001H77.5C79.4 31.4001 81 30.8001 82.2 29.7001C83.5 28.5001 84.1 27.2001 84.1 24.9001V4.6001H78.9Z" fill="#1F1F1F"/>
<path d="M110.6 17.4001C109.6 16.3001 108.2 15.7001 106.5 15.7001H97C96.4 15.7001 96 15.6001 95.6 15.2001C95.2 14.8001 95.1 14.4001 95.1 13.9001V11.2001C95.1 10.7001 95.2 10.2001 95.5 9.9001C95.7 9.7001 96 9.5001 97.1 9.5001H111.8V4.6001H95.3C93.3 4.6001 91.8 5.4001 90.6 7.0001C90.1 7.7001 89.9 8.8001 89.9 10.5001V15.5001C89.9 17.0001 90.3 18.2001 91.1 19.0001C92 20.0001 93.3 20.4001 94.9 20.4001H104.9C105.5 20.4001 106 20.5001 106.3 20.8001C106.7 21.1001 106.9 21.5001 106.9 21.9001V24.6001C106.9 25.9001 106.6 25.9001 106.5 26.0001C106.1 26.4001 105.6 26.5001 105 26.5001H89.9V31.3001H106C107.9 31.3001 109.4 30.7001 110.6 29.5001C111.6 28.4001 112.2 26.9001 112.2 25.0001V22.0001C112.1 20.0001 111.6 18.4001 110.6 17.4001Z" fill="#1F1F1F"/>
<path d="M118.3 4.6001V9.4001H127.1V31.4001H132.3V9.4001H141.1V4.6001H118.3Z" fill="#1F1F1F"/>
<path d="M54.4001 15.7C54.5001 14.1 54.4001 10.5 54.4001 10.5C54.4001 8.09995 53.3001 6.39995 51.2001 5.29995C50.4001 4.89995 49.1001 4.69995 47.4001 4.69995H37.5C35.9 4.69995 31.3 4.69995 31.3 4.69995L33.7001 9.49995H39H39.1H46.6C47.7 9.49995 49.1 9.69995 49.1 11.3V15.2C49.1 16.5 48.5 17 47.1 17H40.2001H31.4V31.5H36.6V21.7999H44.6L48.2001 31.6H54.4001C54.4001 31.6 50.7 21.7 50.6 21.5C50.5 21.2 52.1001 20.9 53.2001 19.8C54.3001 18.5 54.3001 17.3 54.4001 15.7Z" fill="#1F1F1F"/>
<path d="M345.7 6.80005H347.2L353.4 29.1H353.5L359.8 6.80005H361.5L367.8 29.1H367.9L374 6.80005H375.5L368.6 30.6H366.9L360.6 8.40005H360.5L354.2 30.6H352.5L345.7 6.80005Z" fill="black"/>
<path d="M380.5 7.9C380.8 8.1 380.9 8.4 380.9 8.8C380.9 9.2 380.8 9.5 380.5 9.7C380.2 9.9 379.9 10.1 379.6 10.1C379.2 10.1 378.9 10 378.7 9.7C378.4 9.4 378.3 9.1 378.3 8.8C378.3 8.4 378.4 8.1 378.7 7.9C378.9 7.6 379.3 7.5 379.6 7.5C379.9 7.5 380.2 7.6 380.5 7.9ZM378.9 13.3H380.2V30.6H378.9V13.3Z" fill="black"/>
<path d="M402.2 6.80005H404L392.9 16.9L405.5 30.6H403.7L392 17.7L387.2 22.1V30.6H385.9V6.80005H387.2V20.6L402.2 6.80005Z" fill="black"/>
<path d="M410.4 7.9C410.7 8.1 410.8 8.4 410.8 8.8C410.8 9.2 410.7 9.5 410.4 9.7C410.1 9.9 409.8 10.1 409.5 10.1C409.1 10.1 408.8 10 408.6 9.7C408.3 9.4 408.2 9.1 408.2 8.8C408.2 8.4 408.3 8.1 408.6 7.9C408.8 7.6 409.2 7.5 409.5 7.5C409.8 7.5 410.1 7.6 410.4 7.9ZM408.8 13.3H410.1V30.6H408.8V13.3Z" fill="black"/>
<path d="M177.5 17.5C176.5 16.4 175.3 15.7001 173.6 15.7001H164.1C163.5 15.7001 163.1 15.6001 162.7 15.2001C162.3 14.8001 162.2 14.4001 162.2 13.9001V11.2001C162.2 10.7001 162.3 10.2001 162.6 9.9001C162.8 9.7001 163.1 9.5001 164.2 9.5001H178.9V4.6001H162.4C160.4 4.6001 159.2 5.4 158 7C157.5 7.7 157.5 8.8 157.5 10.5V15.5C157.5 17 157.4 18.2001 158.2 19.0001C159.1 20.0001 160.4 20.4001 162 20.4001H172C172.6 20.4001 173.1 20.5001 173.4 20.8001C173.8 21.1001 174 21.5001 174 21.9001V24.6001C174 25.9001 173.7 25.9001 173.6 26.0001C173.2 26.4001 172.7 26.5001 172.1 26.5001H157V31.3001H173.1C175 31.3001 176.3 30.7 177.5 29.5C178.5 28.4 179 26.9 179 25V22C178.9 20 178.5 18.5 177.5 17.5Z" fill="#1F1F1F"/>
<path d="M206.395 31V5H202.145V15.9H189.945V5H185.695V31H189.945V19.6H202.145V31H206.395Z" fill="black"/>
<path d="M226.733 5H221.533L211.883 31H216.133L218.283 25.2H229.933L232.133 31H236.383L226.733 5ZM228.833 21.75H219.433L224.133 8.15L228.833 21.75Z" fill="black"/>
<path d="M241.898 5V31H252.298C259.648 31 261.498 27.6 261.498 22.8V13.2C261.498 8.4 259.648 5 252.298 5H241.898ZM246.148 8.7H251.998C255.948 8.7 257.248 10.05 257.248 13.2V22.8C257.248 25.95 255.948 27.3 251.998 27.3H246.148V8.7Z" fill="black"/>
<path d="M288.936 12.8C288.936 8.35 286.336 4.5 278.286 4.5C270.236 4.5 267.636 8.35 267.636 12.8V23.2C267.636 27.65 270.236 31.5 278.286 31.5C286.336 31.5 288.936 27.65 288.936 23.2V12.8ZM284.686 12.95V23.05C284.686 26.15 282.886 27.75 278.286 27.75C273.636 27.75 271.886 26.15 271.886 23.05V12.95C271.886 9.85 273.636 8.25 278.286 8.25C282.886 8.25 284.686 9.85 284.686 12.95Z" fill="black"/>
<path d="M313.749 5H308.749L302.899 26.5L296.649 5H292.599L300.299 31H305.499L311.249 9.3L316.999 31H322.199L329.899 5H325.849L319.599 26.5L313.749 5Z" fill="black"/>
<path d="M206.395 31V5H202.145V15.9H189.945V5H185.695V31H189.945V19.6H202.145V31H206.395Z" stroke="black" stroke-width="0.5"/>
<path d="M226.733 5H221.533L211.883 31H216.133L218.283 25.2H229.933L232.133 31H236.383L226.733 5ZM228.833 21.75H219.433L224.133 8.15L228.833 21.75Z" stroke="black" stroke-width="0.5"/>
<path d="M241.898 5V31H252.298C259.648 31 261.498 27.6 261.498 22.8V13.2C261.498 8.4 259.648 5 252.298 5H241.898ZM246.148 8.7H251.998C255.948 8.7 257.248 10.05 257.248 13.2V22.8C257.248 25.95 255.948 27.3 251.998 27.3H246.148V8.7Z" stroke="black" stroke-width="0.5"/>
<path d="M288.936 12.8C288.936 8.35 286.336 4.5 278.286 4.5C270.236 4.5 267.636 8.35 267.636 12.8V23.2C267.636 27.65 270.236 31.5 278.286 31.5C286.336 31.5 288.936 27.65 288.936 23.2V12.8ZM284.686 12.95V23.05C284.686 26.15 282.886 27.75 278.286 27.75C273.636 27.75 271.886 26.15 271.886 23.05V12.95C271.886 9.85 273.636 8.25 278.286 8.25C282.886 8.25 284.686 9.85 284.686 12.95Z" stroke="black" stroke-width="0.5"/>
<path d="M313.749 5H308.749L302.899 26.5L296.649 5H292.599L300.299 31H305.499L311.249 9.3L316.999 31H322.199L329.899 5H325.849L319.599 26.5L313.749 5Z" stroke="black" stroke-width="0.5"/>
</svg>
